<!-- TODO: Refactor entire board with masked shadows -->
<svg width="788" height="600" viewBox="0 0 788 600" xmlns="http://www.w3.org/2000/svg" xmlns:xlink="http://www.w3.org/1999/xlink">
    <style>
        .singletShadow {
        	fill: #72B4D3;
        	stroke: none;
        	fill-rule: evenodd;
        }
    </style>
	<g transform="translate(18 18)">
		<g class="singleRow">
			<path class="singletShadow" d="M82.9741461,42.6228924 C83.3198844,44.729267 83.5,46.8946884 83.5,49.1040268 C83.5,70.1482998 67.1583934,87.2080537 47,87.2080537 C26.8416066,87.2080537 10.5,70.1482998 10.5,49.1040268 C10.5,46.8946884 10.6801156,44.729267 11.0258539,42.6228924 C11.0086693,43.0798007 11,43.5388879 11,44 C11,63.882251 27.117749,80 47,80 C66.882251,80 83,63.882251 83,44 C83,43.5388879 82.9913307,43.0798007 82.9741461,42.6228924 Z"></path>
			<path transform="translate(94 0)" class="singletShadow" d="M82.9741461,42.6228924 C83.3198844,44.729267 83.5,46.8946884 83.5,49.1040268 C83.5,70.1482998 67.1583934,87.2080537 47,87.2080537 C26.8416066,87.2080537 10.5,70.1482998 10.5,49.1040268 C10.5,46.8946884 10.6801156,44.729267 11.0258539,42.6228924 C11.0086693,43.0798007 11,43.5388879 11,44 C11,63.882251 27.117749,80 47,80 C66.882251,80 83,63.882251 83,44 C83,43.5388879 82.9913307,43.0798007 82.9741461,42.6228924 Z"></path>
			<path transform="translate(188 0)" class="singletShadow" d="M82.9741461,42.6228924 C83.3198844,44.729267 83.5,46.8946884 83.5,49.1040268 C83.5,70.1482998 67.1583934,87.2080537 47,87.2080537 C26.8416066,87.2080537 10.5,70.1482998 10.5,49.1040268 C10.5,46.8946884 10.6801156,44.729267 11.0258539,42.6228924 C11.0086693,43.0798007 11,43.5388879 11,44 C11,63.882251 27.117749,80 47,80 C66.882251,80 83,63.882251 83,44 C83,43.5388879 82.9913307,43.0798007 82.9741461,42.6228924 Z"></path>
			<path transform="translate(282 0)" class="singletShadow" d="M82.9741461,42.6228924 C83.3198844,44.729267 83.5,46.8946884 83.5,49.1040268 C83.5,70.1482998 67.1583934,87.2080537 47,87.2080537 C26.8416066,87.2080537 10.5,70.1482998 10.5,49.1040268 C10.5,46.8946884 10.6801156,44.729267 11.0258539,42.6228924 C11.0086693,43.0798007 11,43.5388879 11,44 C11,63.882251 27.117749,80 47,80 C66.882251,80 83,63.882251 83,44 C83,43.5388879 82.9913307,43.0798007 82.9741461,42.6228924 Z"></path>
			<path transform="translate(376 0)" class="singletShadow" d="M82.9741461,42.6228924 C83.3198844,44.729267 83.5,46.8946884 83.5,49.1040268 C83.5,70.1482998 67.1583934,87.2080537 47,87.2080537 C26.8416066,87.2080537 10.5,70.1482998 10.5,49.1040268 C10.5,46.8946884 10.6801156,44.729267 11.0258539,42.6228924 C11.0086693,43.0798007 11,43.5388879 11,44 C11,63.882251 27.117749,80 47,80 C66.882251,80 83,63.882251 83,44 C83,43.5388879 82.9913307,43.0798007 82.9741461,42.6228924 Z"></path>
			<path transform="translate(470 0)" class="singletShadow" d="M82.9741461,42.6228924 C83.3198844,44.729267 83.5,46.8946884 83.5,49.1040268 C83.5,70.1482998 67.1583934,87.2080537 47,87.2080537 C26.8416066,87.2080537 10.5,70.1482998 10.5,49.1040268 C10.5,46.8946884 10.6801156,44.729267 11.0258539,42.6228924 C11.0086693,43.0798007 11,43.5388879 11,44 C11,63.882251 27.117749,80 47,80 C66.882251,80 83,63.882251 83,44 C83,43.5388879 82.9913307,43.0798007 82.9741461,42.6228924 Z"></path>
			<path transform="translate(564 0)" class="singletShadow" d="M82.9741461,42.6228924 C83.3198844,44.729267 83.5,46.8946884 83.5,49.1040268 C83.5,70.1482998 67.1583934,87.2080537 47,87.2080537 C26.8416066,87.2080537 10.5,70.1482998 10.5,49.1040268 C10.5,46.8946884 10.6801156,44.729267 11.0258539,42.6228924 C11.0086693,43.0798007 11,43.5388879 11,44 C11,63.882251 27.117749,80 47,80 C66.882251,80 83,63.882251 83,44 C83,43.5388879 82.9913307,43.0798007 82.9741461,42.6228924 Z"></path>
			<path transform="translate(658 0)" class="singletShadow" d="M82.9741461,42.6228924 C83.3198844,44.729267 83.5,46.8946884 83.5,49.1040268 C83.5,70.1482998 67.1583934,87.2080537 47,87.2080537 C26.8416066,87.2080537 10.5,70.1482998 10.5,49.1040268 C10.5,46.8946884 10.6801156,44.729267 11.0258539,42.6228924 C11.0086693,43.0798007 11,43.5388879 11,44 C11,63.882251 27.117749,80 47,80 C66.882251,80 83,63.882251 83,44 C83,43.5388879 82.9913307,43.0798007 82.9741461,42.6228924 Z"></path>
		</g>
		<g class="singleRow" transform="translate(0 94)">
			<path class="singletShadow" d="M82.9741461,42.6228924 C83.3198844,44.729267 83.5,46.8946884 83.5,49.1040268 C83.5,70.1482998 67.1583934,87.2080537 47,87.2080537 C26.8416066,87.2080537 10.5,70.1482998 10.5,49.1040268 C10.5,46.8946884 10.6801156,44.729267 11.0258539,42.6228924 C11.0086693,43.0798007 11,43.5388879 11,44 C11,63.882251 27.117749,80 47,80 C66.882251,80 83,63.882251 83,44 C83,43.5388879 82.9913307,43.0798007 82.9741461,42.6228924 Z"></path>
			<path transform="translate(94 0)" class="singletShadow" d="M82.9741461,42.6228924 C83.3198844,44.729267 83.5,46.8946884 83.5,49.1040268 C83.5,70.1482998 67.1583934,87.2080537 47,87.2080537 C26.8416066,87.2080537 10.5,70.1482998 10.5,49.1040268 C10.5,46.8946884 10.6801156,44.729267 11.0258539,42.6228924 C11.0086693,43.0798007 11,43.5388879 11,44 C11,63.882251 27.117749,80 47,80 C66.882251,80 83,63.882251 83,44 C83,43.5388879 82.9913307,43.0798007 82.9741461,42.6228924 Z"></path>
			<path transform="translate(188 0)" class="singletShadow" d="M82.9741461,42.6228924 C83.3198844,44.729267 83.5,46.8946884 83.5,49.1040268 C83.5,70.1482998 67.1583934,87.2080537 47,87.2080537 C26.8416066,87.2080537 10.5,70.1482998 10.5,49.1040268 C10.5,46.8946884 10.6801156,44.729267 11.0258539,42.6228924 C11.0086693,43.0798007 11,43.5388879 11,44 C11,63.882251 27.117749,80 47,80 C66.882251,80 83,63.882251 83,44 C83,43.5388879 82.9913307,43.0798007 82.9741461,42.6228924 Z"></path>
			<path transform="translate(282 0)" class="singletShadow" d="M82.9741461,42.6228924 C83.3198844,44.729267 83.5,46.8946884 83.5,49.1040268 C83.5,70.1482998 67.1583934,87.2080537 47,87.2080537 C26.8416066,87.2080537 10.5,70.1482998 10.5,49.1040268 C10.5,46.8946884 10.6801156,44.729267 11.0258539,42.6228924 C11.0086693,43.0798007 11,43.5388879 11,44 C11,63.882251 27.117749,80 47,80 C66.882251,80 83,63.882251 83,44 C83,43.5388879 82.9913307,43.0798007 82.9741461,42.6228924 Z"></path>
			<path transform="translate(376 0)" class="singletShadow" d="M82.9741461,42.6228924 C83.3198844,44.729267 83.5,46.8946884 83.5,49.1040268 C83.5,70.1482998 67.1583934,87.2080537 47,87.2080537 C26.8416066,87.2080537 10.5,70.1482998 10.5,49.1040268 C10.5,46.8946884 10.6801156,44.729267 11.0258539,42.6228924 C11.0086693,43.0798007 11,43.5388879 11,44 C11,63.882251 27.117749,80 47,80 C66.882251,80 83,63.882251 83,44 C83,43.5388879 82.9913307,43.0798007 82.9741461,42.6228924 Z"></path>
			<path transform="translate(470 0)" class="singletShadow" d="M82.9741461,42.6228924 C83.3198844,44.729267 83.5,46.8946884 83.5,49.1040268 C83.5,70.1482998 67.1583934,87.2080537 47,87.2080537 C26.8416066,87.2080537 10.5,70.1482998 10.5,49.1040268 C10.5,46.8946884 10.6801156,44.729267 11.0258539,42.6228924 C11.0086693,43.0798007 11,43.5388879 11,44 C11,63.882251 27.117749,80 47,80 C66.882251,80 83,63.882251 83,44 C83,43.5388879 82.9913307,43.0798007 82.9741461,42.6228924 Z"></path>
			<path transform="translate(564 0)" class="singletShadow" d="M82.9741461,42.6228924 C83.3198844,44.729267 83.5,46.8946884 83.5,49.1040268 C83.5,70.1482998 67.1583934,87.2080537 47,87.2080537 C26.8416066,87.2080537 10.5,70.1482998 10.5,49.1040268 C10.5,46.8946884 10.6801156,44.729267 11.0258539,42.6228924 C11.0086693,43.0798007 11,43.5388879 11,44 C11,63.882251 27.117749,80 47,80 C66.882251,80 83,63.882251 83,44 C83,43.5388879 82.9913307,43.0798007 82.9741461,42.6228924 Z"></path>
			<path transform="translate(658 0)" class="singletShadow" d="M82.9741461,42.6228924 C83.3198844,44.729267 83.5,46.8946884 83.5,49.1040268 C83.5,70.1482998 67.1583934,87.2080537 47,87.2080537 C26.8416066,87.2080537 10.5,70.1482998 10.5,49.1040268 C10.5,46.8946884 10.6801156,44.729267 11.0258539,42.6228924 C11.0086693,43.0798007 11,43.5388879 11,44 C11,63.882251 27.117749,80 47,80 C66.882251,80 83,63.882251 83,44 C83,43.5388879 82.9913307,43.0798007 82.9741461,42.6228924 Z"></path>
		</g>
		<g class="singleRow" transform="translate(0 188)">
			<path class="singletShadow" d="M82.9741461,42.6228924 C83.3198844,44.729267 83.5,46.8946884 83.5,49.1040268 C83.5,70.1482998 67.1583934,87.2080537 47,87.2080537 C26.8416066,87.2080537 10.5,70.1482998 10.5,49.1040268 C10.5,46.8946884 10.6801156,44.729267 11.0258539,42.6228924 C11.0086693,43.0798007 11,43.5388879 11,44 C11,63.882251 27.117749,80 47,80 C66.882251,80 83,63.882251 83,44 C83,43.5388879 82.9913307,43.0798007 82.9741461,42.6228924 Z"></path>
			<path transform="translate(94 0)" class="singletShadow" d="M82.9741461,42.6228924 C83.3198844,44.729267 83.5,46.8946884 83.5,49.1040268 C83.5,70.1482998 67.1583934,87.2080537 47,87.2080537 C26.8416066,87.2080537 10.5,70.1482998 10.5,49.1040268 C10.5,46.8946884 10.6801156,44.729267 11.0258539,42.6228924 C11.0086693,43.0798007 11,43.5388879 11,44 C11,63.882251 27.117749,80 47,80 C66.882251,80 83,63.882251 83,44 C83,43.5388879 82.9913307,43.0798007 82.9741461,42.6228924 Z"></path>
			<path transform="translate(188 0)" class="singletShadow" d="M82.9741461,42.6228924 C83.3198844,44.729267 83.5,46.8946884 83.5,49.1040268 C83.5,70.1482998 67.1583934,87.2080537 47,87.2080537 C26.8416066,87.2080537 10.5,70.1482998 10.5,49.1040268 C10.5,46.8946884 10.6801156,44.729267 11.0258539,42.6228924 C11.0086693,43.0798007 11,43.5388879 11,44 C11,63.882251 27.117749,80 47,80 C66.882251,80 83,63.882251 83,44 C83,43.5388879 82.9913307,43.0798007 82.9741461,42.6228924 Z"></path>
			<path transform="translate(282 0)" class="singletShadow" d="M82.9741461,42.6228924 C83.3198844,44.729267 83.5,46.8946884 83.5,49.1040268 C83.5,70.1482998 67.1583934,87.2080537 47,87.2080537 C26.8416066,87.2080537 10.5,70.1482998 10.5,49.1040268 C10.5,46.8946884 10.6801156,44.729267 11.0258539,42.6228924 C11.0086693,43.0798007 11,43.5388879 11,44 C11,63.882251 27.117749,80 47,80 C66.882251,80 83,63.882251 83,44 C83,43.5388879 82.9913307,43.0798007 82.9741461,42.6228924 Z"></path>
			<path transform="translate(376 0)" class="singletShadow" d="M82.9741461,42.6228924 C83.3198844,44.729267 83.5,46.8946884 83.5,49.1040268 C83.5,70.1482998 67.1583934,87.2080537 47,87.2080537 C26.8416066,87.2080537 10.5,70.1482998 10.5,49.1040268 C10.5,46.8946884 10.6801156,44.729267 11.0258539,42.6228924 C11.0086693,43.0798007 11,43.5388879 11,44 C11,63.882251 27.117749,80 47,80 C66.882251,80 83,63.882251 83,44 C83,43.5388879 82.9913307,43.0798007 82.9741461,42.6228924 Z"></path>
			<path transform="translate(470 0)" class="singletShadow" d="M82.9741461,42.6228924 C83.3198844,44.729267 83.5,46.8946884 83.5,49.1040268 C83.5,70.1482998 67.1583934,87.2080537 47,87.2080537 C26.8416066,87.2080537 10.5,70.1482998 10.5,49.1040268 C10.5,46.8946884 10.6801156,44.729267 11.0258539,42.6228924 C11.0086693,43.0798007 11,43.5388879 11,44 C11,63.882251 27.117749,80 47,80 C66.882251,80 83,63.882251 83,44 C83,43.5388879 82.9913307,43.0798007 82.9741461,42.6228924 Z"></path>
			<path transform="translate(564 0)" class="singletShadow" d="M82.9741461,42.6228924 C83.3198844,44.729267 83.5,46.8946884 83.5,49.1040268 C83.5,70.1482998 67.1583934,87.2080537 47,87.2080537 C26.8416066,87.2080537 10.5,70.1482998 10.5,49.1040268 C10.5,46.8946884 10.6801156,44.729267 11.0258539,42.6228924 C11.0086693,43.0798007 11,43.5388879 11,44 C11,63.882251 27.117749,80 47,80 C66.882251,80 83,63.882251 83,44 C83,43.5388879 82.9913307,43.0798007 82.9741461,42.6228924 Z"></path>
			<path transform="translate(658 0)" class="singletShadow" d="M82.9741461,42.6228924 C83.3198844,44.729267 83.5,46.8946884 83.5,49.1040268 C83.5,70.1482998 67.1583934,87.2080537 47,87.2080537 C26.8416066,87.2080537 10.5,70.1482998 10.5,49.1040268 C10.5,46.8946884 10.6801156,44.729267 11.0258539,42.6228924 C11.0086693,43.0798007 11,43.5388879 11,44 C11,63.882251 27.117749,80 47,80 C66.882251,80 83,63.882251 83,44 C83,43.5388879 82.9913307,43.0798007 82.9741461,42.6228924 Z"></path>
		</g>
		<g class="singleRow" transform="translate(0 282)">
			<path class="singletShadow" d="M82.9741461,42.6228924 C83.3198844,44.729267 83.5,46.8946884 83.5,49.1040268 C83.5,70.1482998 67.1583934,87.2080537 47,87.2080537 C26.8416066,87.2080537 10.5,70.1482998 10.5,49.1040268 C10.5,46.8946884 10.6801156,44.729267 11.0258539,42.6228924 C11.0086693,43.0798007 11,43.5388879 11,44 C11,63.882251 27.117749,80 47,80 C66.882251,80 83,63.882251 83,44 C83,43.5388879 82.9913307,43.0798007 82.9741461,42.6228924 Z"></path>
			<path transform="translate(94 0)" class="singletShadow" d="M82.9741461,42.6228924 C83.3198844,44.729267 83.5,46.8946884 83.5,49.1040268 C83.5,70.1482998 67.1583934,87.2080537 47,87.2080537 C26.8416066,87.2080537 10.5,70.1482998 10.5,49.1040268 C10.5,46.8946884 10.6801156,44.729267 11.0258539,42.6228924 C11.0086693,43.0798007 11,43.5388879 11,44 C11,63.882251 27.117749,80 47,80 C66.882251,80 83,63.882251 83,44 C83,43.5388879 82.9913307,43.0798007 82.9741461,42.6228924 Z"></path>
			<path transform="translate(188 0)" class="singletShadow" d="M82.9741461,42.6228924 C83.3198844,44.729267 83.5,46.8946884 83.5,49.1040268 C83.5,70.1482998 67.1583934,87.2080537 47,87.2080537 C26.8416066,87.2080537 10.5,70.1482998 10.5,49.1040268 C10.5,46.8946884 10.6801156,44.729267 11.0258539,42.6228924 C11.0086693,43.0798007 11,43.5388879 11,44 C11,63.882251 27.117749,80 47,80 C66.882251,80 83,63.882251 83,44 C83,43.5388879 82.9913307,43.0798007 82.9741461,42.6228924 Z"></path>
			<path transform="translate(282 0)" class="singletShadow" d="M82.9741461,42.6228924 C83.3198844,44.729267 83.5,46.8946884 83.5,49.1040268 C83.5,70.1482998 67.1583934,87.2080537 47,87.2080537 C26.8416066,87.2080537 10.5,70.1482998 10.5,49.1040268 C10.5,46.8946884 10.6801156,44.729267 11.0258539,42.6228924 C11.0086693,43.0798007 11,43.5388879 11,44 C11,63.882251 27.117749,80 47,80 C66.882251,80 83,63.882251 83,44 C83,43.5388879 82.9913307,43.0798007 82.9741461,42.6228924 Z"></path>
			<path transform="translate(376 0)" class="singletShadow" d="M82.9741461,42.6228924 C83.3198844,44.729267 83.5,46.8946884 83.5,49.1040268 C83.5,70.1482998 67.1583934,87.2080537 47,87.2080537 C26.8416066,87.2080537 10.5,70.1482998 10.5,49.1040268 C10.5,46.8946884 10.6801156,44.729267 11.0258539,42.6228924 C11.0086693,43.0798007 11,43.5388879 11,44 C11,63.882251 27.117749,80 47,80 C66.882251,80 83,63.882251 83,44 C83,43.5388879 82.9913307,43.0798007 82.9741461,42.6228924 Z"></path>
			<path transform="translate(470 0)" class="singletShadow" d="M82.9741461,42.6228924 C83.3198844,44.729267 83.5,46.8946884 83.5,49.1040268 C83.5,70.1482998 67.1583934,87.2080537 47,87.2080537 C26.8416066,87.2080537 10.5,70.1482998 10.5,49.1040268 C10.5,46.8946884 10.6801156,44.729267 11.0258539,42.6228924 C11.0086693,43.0798007 11,43.5388879 11,44 C11,63.882251 27.117749,80 47,80 C66.882251,80 83,63.882251 83,44 C83,43.5388879 82.9913307,43.0798007 82.9741461,42.6228924 Z"></path>
			<path transform="translate(564 0)" class="singletShadow" d="M82.9741461,42.6228924 C83.3198844,44.729267 83.5,46.8946884 83.5,49.1040268 C83.5,70.1482998 67.1583934,87.2080537 47,87.2080537 C26.8416066,87.2080537 10.5,70.1482998 10.5,49.1040268 C10.5,46.8946884 10.6801156,44.729267 11.0258539,42.6228924 C11.0086693,43.0798007 11,43.5388879 11,44 C11,63.882251 27.117749,80 47,80 C66.882251,80 83,63.882251 83,44 C83,43.5388879 82.9913307,43.0798007 82.9741461,42.6228924 Z"></path>
			<path transform="translate(658 0)" class="singletShadow" d="M82.9741461,42.6228924 C83.3198844,44.729267 83.5,46.8946884 83.5,49.1040268 C83.5,70.1482998 67.1583934,87.2080537 47,87.2080537 C26.8416066,87.2080537 10.5,70.1482998 10.5,49.1040268 C10.5,46.8946884 10.6801156,44.729267 11.0258539,42.6228924 C11.0086693,43.0798007 11,43.5388879 11,44 C11,63.882251 27.117749,80 47,80 C66.882251,80 83,63.882251 83,44 C83,43.5388879 82.9913307,43.0798007 82.9741461,42.6228924 Z"></path>
		</g>
		<g class="singleRow" transform="translate(0 376)">
			<path class="singletShadow" d="M82.9741461,42.6228924 C83.3198844,44.729267 83.5,46.8946884 83.5,49.1040268 C83.5,70.1482998 67.1583934,87.2080537 47,87.2080537 C26.8416066,87.2080537 10.5,70.1482998 10.5,49.1040268 C10.5,46.8946884 10.6801156,44.729267 11.0258539,42.6228924 C11.0086693,43.0798007 11,43.5388879 11,44 C11,63.882251 27.117749,80 47,80 C66.882251,80 83,63.882251 83,44 C83,43.5388879 82.9913307,43.0798007 82.9741461,42.6228924 Z"></path>
			<path transform="translate(94 0)" class="singletShadow" d="M82.9741461,42.6228924 C83.3198844,44.729267 83.5,46.8946884 83.5,49.1040268 C83.5,70.1482998 67.1583934,87.2080537 47,87.2080537 C26.8416066,87.2080537 10.5,70.1482998 10.5,49.1040268 C10.5,46.8946884 10.6801156,44.729267 11.0258539,42.6228924 C11.0086693,43.0798007 11,43.5388879 11,44 C11,63.882251 27.117749,80 47,80 C66.882251,80 83,63.882251 83,44 C83,43.5388879 82.9913307,43.0798007 82.9741461,42.6228924 Z"></path>
			<path transform="translate(188 0)" class="singletShadow" d="M82.9741461,42.6228924 C83.3198844,44.729267 83.5,46.8946884 83.5,49.1040268 C83.5,70.1482998 67.1583934,87.2080537 47,87.2080537 C26.8416066,87.2080537 10.5,70.1482998 10.5,49.1040268 C10.5,46.8946884 10.6801156,44.729267 11.0258539,42.6228924 C11.0086693,43.0798007 11,43.5388879 11,44 C11,63.882251 27.117749,80 47,80 C66.882251,80 83,63.882251 83,44 C83,43.5388879 82.9913307,43.0798007 82.9741461,42.6228924 Z"></path>
			<path transform="translate(282 0)" class="singletShadow" d="M82.9741461,42.6228924 C83.3198844,44.729267 83.5,46.8946884 83.5,49.1040268 C83.5,70.1482998 67.1583934,87.2080537 47,87.2080537 C26.8416066,87.2080537 10.5,70.1482998 10.5,49.1040268 C10.5,46.8946884 10.6801156,44.729267 11.0258539,42.6228924 C11.0086693,43.0798007 11,43.5388879 11,44 C11,63.882251 27.117749,80 47,80 C66.882251,80 83,63.882251 83,44 C83,43.5388879 82.9913307,43.0798007 82.9741461,42.6228924 Z"></path>
			<path transform="translate(376 0)" class="singletShadow" d="M82.9741461,42.6228924 C83.3198844,44.729267 83.5,46.8946884 83.5,49.1040268 C83.5,70.1482998 67.1583934,87.2080537 47,87.2080537 C26.8416066,87.2080537 10.5,70.1482998 10.5,49.1040268 C10.5,46.8946884 10.6801156,44.729267 11.0258539,42.6228924 C11.0086693,43.0798007 11,43.5388879 11,44 C11,63.882251 27.117749,80 47,80 C66.882251,80 83,63.882251 83,44 C83,43.5388879 82.9913307,43.0798007 82.9741461,42.6228924 Z"></path>
			<path transform="translate(470 0)" class="singletShadow" d="M82.9741461,42.6228924 C83.3198844,44.729267 83.5,46.8946884 83.5,49.1040268 C83.5,70.1482998 67.1583934,87.2080537 47,87.2080537 C26.8416066,87.2080537 10.5,70.1482998 10.5,49.1040268 C10.5,46.8946884 10.6801156,44.729267 11.0258539,42.6228924 C11.0086693,43.0798007 11,43.5388879 11,44 C11,63.882251 27.117749,80 47,80 C66.882251,80 83,63.882251 83,44 C83,43.5388879 82.9913307,43.0798007 82.9741461,42.6228924 Z"></path>
			<path transform="translate(564 0)" class="singletShadow" d="M82.9741461,42.6228924 C83.3198844,44.729267 83.5,46.8946884 83.5,49.1040268 C83.5,70.1482998 67.1583934,87.2080537 47,87.2080537 C26.8416066,87.2080537 10.5,70.1482998 10.5,49.1040268 C10.5,46.8946884 10.6801156,44.729267 11.0258539,42.6228924 C11.0086693,43.0798007 11,43.5388879 11,44 C11,63.882251 27.117749,80 47,80 C66.882251,80 83,63.882251 83,44 C83,43.5388879 82.9913307,43.0798007 82.9741461,42.6228924 Z"></path>
			<path transform="translate(658 0)" class="singletShadow" d="M82.9741461,42.6228924 C83.3198844,44.729267 83.5,46.8946884 83.5,49.1040268 C83.5,70.1482998 67.1583934,87.2080537 47,87.2080537 C26.8416066,87.2080537 10.5,70.1482998 10.5,49.1040268 C10.5,46.8946884 10.6801156,44.729267 11.0258539,42.6228924 C11.0086693,43.0798007 11,43.5388879 11,44 C11,63.882251 27.117749,80 47,80 C66.882251,80 83,63.882251 83,44 C83,43.5388879 82.9913307,43.0798007 82.9741461,42.6228924 Z"></path>
		</g>
		<g class="singleRow" transform="translate(0 470)">
			<path class="singletShadow" d="M82.9741461,42.6228924 C83.3198844,44.729267 83.5,46.8946884 83.5,49.1040268 C83.5,70.1482998 67.1583934,87.2080537 47,87.2080537 C26.8416066,87.2080537 10.5,70.1482998 10.5,49.1040268 C10.5,46.8946884 10.6801156,44.729267 11.0258539,42.6228924 C11.0086693,43.0798007 11,43.5388879 11,44 C11,63.882251 27.117749,80 47,80 C66.882251,80 83,63.882251 83,44 C83,43.5388879 82.9913307,43.0798007 82.9741461,42.6228924 Z"></path>
			<path transform="translate(94 0)" class="singletShadow" d="M82.9741461,42.6228924 C83.3198844,44.729267 83.5,46.8946884 83.5,49.1040268 C83.5,70.1482998 67.1583934,87.2080537 47,87.2080537 C26.8416066,87.2080537 10.5,70.1482998 10.5,49.1040268 C10.5,46.8946884 10.6801156,44.729267 11.0258539,42.6228924 C11.0086693,43.0798007 11,43.5388879 11,44 C11,63.882251 27.117749,80 47,80 C66.882251,80 83,63.882251 83,44 C83,43.5388879 82.9913307,43.0798007 82.9741461,42.6228924 Z"></path>
			<path transform="translate(188 0)" class="singletShadow" d="M82.9741461,42.6228924 C83.3198844,44.729267 83.5,46.8946884 83.5,49.1040268 C83.5,70.1482998 67.1583934,87.2080537 47,87.2080537 C26.8416066,87.2080537 10.5,70.1482998 10.5,49.1040268 C10.5,46.8946884 10.6801156,44.729267 11.0258539,42.6228924 C11.0086693,43.0798007 11,43.5388879 11,44 C11,63.882251 27.117749,80 47,80 C66.882251,80 83,63.882251 83,44 C83,43.5388879 82.9913307,43.0798007 82.9741461,42.6228924 Z"></path>
			<path transform="translate(282 0)" class="singletShadow" d="M82.9741461,42.6228924 C83.3198844,44.729267 83.5,46.8946884 83.5,49.1040268 C83.5,70.1482998 67.1583934,87.2080537 47,87.2080537 C26.8416066,87.2080537 10.5,70.1482998 10.5,49.1040268 C10.5,46.8946884 10.6801156,44.729267 11.0258539,42.6228924 C11.0086693,43.0798007 11,43.5388879 11,44 C11,63.882251 27.117749,80 47,80 C66.882251,80 83,63.882251 83,44 C83,43.5388879 82.9913307,43.0798007 82.9741461,42.6228924 Z"></path>
			<path transform="translate(376 0)" class="singletShadow" d="M82.9741461,42.6228924 C83.3198844,44.729267 83.5,46.8946884 83.5,49.1040268 C83.5,70.1482998 67.1583934,87.2080537 47,87.2080537 C26.8416066,87.2080537 10.5,70.1482998 10.5,49.1040268 C10.5,46.8946884 10.6801156,44.729267 11.0258539,42.6228924 C11.0086693,43.0798007 11,43.5388879 11,44 C11,63.882251 27.117749,80 47,80 C66.882251,80 83,63.882251 83,44 C83,43.5388879 82.9913307,43.0798007 82.9741461,42.6228924 Z"></path>
			<path transform="translate(470 0)" class="singletShadow" d="M82.9741461,42.6228924 C83.3198844,44.729267 83.5,46.8946884 83.5,49.1040268 C83.5,70.1482998 67.1583934,87.2080537 47,87.2080537 C26.8416066,87.2080537 10.5,70.1482998 10.5,49.1040268 C10.5,46.8946884 10.6801156,44.729267 11.0258539,42.6228924 C11.0086693,43.0798007 11,43.5388879 11,44 C11,63.882251 27.117749,80 47,80 C66.882251,80 83,63.882251 83,44 C83,43.5388879 82.9913307,43.0798007 82.9741461,42.6228924 Z"></path>
			<path transform="translate(564 0)" class="singletShadow" d="M82.9741461,42.6228924 C83.3198844,44.729267 83.5,46.8946884 83.5,49.1040268 C83.5,70.1482998 67.1583934,87.2080537 47,87.2080537 C26.8416066,87.2080537 10.5,70.1482998 10.5,49.1040268 C10.5,46.8946884 10.6801156,44.729267 11.0258539,42.6228924 C11.0086693,43.0798007 11,43.5388879 11,44 C11,63.882251 27.117749,80 47,80 C66.882251,80 83,63.882251 83,44 C83,43.5388879 82.9913307,43.0798007 82.9741461,42.6228924 Z"></path>
			<path transform="translate(658 0)" class="singletShadow" d="M82.9741461,42.6228924 C83.3198844,44.729267 83.5,46.8946884 83.5,49.1040268 C83.5,70.1482998 67.1583934,87.2080537 47,87.2080537 C26.8416066,87.2080537 10.5,70.1482998 10.5,49.1040268 C10.5,46.8946884 10.6801156,44.729267 11.0258539,42.6228924 C11.0086693,43.0798007 11,43.5388879 11,44 C11,63.882251 27.117749,80 47,80 C66.882251,80 83,63.882251 83,44 C83,43.5388879 82.9913307,43.0798007 82.9741461,42.6228924 Z"></path>
		</g>
	</g>
</svg>
